<svg xmlns="http://www.w3.org/2000/svg" width="500" zoomAndPan="magnify" viewBox="0 0 375 374.999991" height="500" preserveAspectRatio="xMidYMid meet" version="1.0"><defs><clipPath id="53ea41fdf0"><path d="M 122 41.933594 L 252 41.933594 L 252 332.933594 L 122 332.933594 Z M 122 41.933594 " clip-rule="nonzero"/></clipPath></defs><path fill="#0092b8" d="M 118.308594 279.296875 C 116.238281 279.296875 114.195312 278.601562 112.566406 277.304688 L 7.691406 194.789062 C 5.433594 193.019531 4.144531 190.359375 4.144531 187.496094 C 4.144531 184.632812 5.433594 181.972656 7.683594 180.1875 L 112.566406 97.6875 C 114.195312 96.390625 116.238281 95.695312 118.308594 95.695312 C 121.171875 95.695312 123.847656 96.976562 125.601562 99.238281 C 127.136719 101.1875 127.835938 103.621094 127.535156 106.074219 C 127.25 108.542969 126 110.742188 124.054688 112.277344 L 28.472656 187.496094 L 124.054688 262.699219 C 126 264.25 127.25 266.449219 127.535156 268.902344 C 127.835938 271.371094 127.136719 273.789062 125.601562 275.753906 C 123.847656 278 121.171875 279.296875 118.308594 279.296875 " fill-opacity="1" fill-rule="nonzero"/><path fill="#18181b" d="M 118.308594 91.738281 C 115.351562 91.738281 112.457031 92.738281 110.128906 94.574219 L 5.242188 177.085938 C 2.023438 179.632812 0.1875 183.414062 0.1875 187.496094 C 0.1875 191.578125 2.035156 195.375 5.242188 197.90625 L 110.128906 280.421875 C 112.4375 282.238281 115.351562 283.253906 118.308594 283.253906 C 122.40625 283.253906 126.203125 281.402344 128.71875 278.1875 C 130.917969 275.421875 131.886719 271.957031 131.472656 268.441406 C 131.046875 264.929688 129.289062 261.78125 126.503906 259.597656 L 34.863281 187.496094 L 126.503906 115.394531 C 129.289062 113.195312 131.046875 110.0625 131.472656 106.550781 C 131.886719 103.039062 130.917969 99.570312 128.71875 96.789062 C 126.203125 93.574219 122.390625 91.738281 118.308594 91.738281 Z M 118.308594 99.652344 C 119.890625 99.652344 121.457031 100.347656 122.503906 101.675781 C 124.335938 104.003906 123.925781 107.355469 121.617188 109.175781 L 22.0625 187.496094 L 121.617188 265.816406 C 123.925781 267.636719 124.335938 270.988281 122.503906 273.300781 C 121.457031 274.644531 119.890625 275.339844 118.308594 275.339844 C 117.15625 275.339844 116 274.976562 115.019531 274.203125 L 10.132812 191.6875 C 8.851562 190.675781 8.101562 189.125 8.101562 187.496094 C 8.101562 185.851562 8.851562 184.316406 10.132812 183.304688 L 115.019531 100.789062 C 115.984375 100.015625 117.15625 99.652344 118.308594 99.652344 " fill-opacity="1" fill-rule="nonzero"/><path fill="#0092b8" d="M 256.691406 279.296875 C 253.828125 279.296875 251.167969 278 249.378906 275.753906 C 246.214844 271.734375 246.914062 265.878906 250.945312 262.699219 L 346.546875 187.496094 L 250.945312 112.277344 C 246.914062 109.113281 246.214844 103.257812 249.378906 99.238281 C 251.167969 96.976562 253.828125 95.695312 256.691406 95.695312 C 258.761719 95.695312 260.804688 96.390625 262.433594 97.6875 L 367.320312 180.1875 C 369.566406 181.972656 370.847656 184.632812 370.847656 187.496094 C 370.847656 190.359375 369.566406 193.019531 367.304688 194.789062 L 262.433594 277.304688 C 260.804688 278.601562 258.761719 279.296875 256.691406 279.296875 " fill-opacity="1" fill-rule="nonzero"/><path fill="#18181b" d="M 256.691406 91.738281 C 252.609375 91.738281 248.8125 93.574219 246.28125 96.789062 C 241.753906 102.53125 242.75 110.871094 248.496094 115.394531 L 340.136719 187.496094 L 248.496094 259.597656 C 242.75 264.109375 241.753906 272.460938 246.28125 278.1875 C 248.8125 281.402344 252.609375 283.253906 256.691406 283.253906 C 259.648438 283.253906 262.542969 282.238281 264.871094 280.421875 L 369.757812 197.90625 C 372.96875 195.375 374.804688 191.578125 374.804688 187.496094 C 374.804688 183.414062 372.96875 179.632812 369.773438 177.085938 L 264.886719 94.574219 C 262.5625 92.738281 259.648438 91.738281 256.691406 91.738281 Z M 256.691406 99.652344 C 257.84375 99.652344 259.015625 100.015625 259.980469 100.789062 L 364.867188 183.304688 C 366.148438 184.316406 366.890625 185.851562 366.890625 187.496094 C 366.890625 189.125 366.148438 190.675781 364.867188 191.6875 L 259.980469 274.203125 C 259.015625 274.976562 257.84375 275.339844 256.691406 275.339844 C 255.109375 275.339844 253.542969 274.644531 252.496094 273.300781 C 250.679688 270.988281 251.074219 267.636719 253.382812 265.816406 L 352.9375 187.496094 L 253.382812 109.175781 C 251.074219 107.355469 250.679688 104.003906 252.496094 101.675781 C 253.542969 100.347656 255.125 99.652344 256.691406 99.652344 " fill-opacity="1" fill-rule="nonzero"/><path fill="#0092b8" d="M 135.382812 329.089844 C 134.226562 329.089844 133.101562 328.867188 132.027344 328.457031 C 129.71875 327.554688 127.882812 325.8125 126.886719 323.550781 C 125.871094 321.273438 125.824219 318.757812 126.710938 316.449219 L 229.144531 51.835938 C 230.519531 48.292969 234 45.902344 237.800781 45.902344 C 238.953125 45.902344 240.09375 46.125 241.167969 46.535156 C 245.929688 48.386719 248.320312 53.78125 246.46875 58.5625 L 144.050781 323.15625 C 142.675781 326.699219 139.179688 329.089844 135.382812 329.089844 " fill-opacity="1" fill-rule="nonzero"/><g clip-path="url(#53ea41fdf0)"><path fill="#18181b" d="M 237.800781 41.949219 C 232.371094 41.949219 227.402344 45.367188 225.457031 50.414062 L 123.023438 315.007812 C 121.757812 318.3125 121.835938 321.90625 123.261719 325.148438 C 124.703125 328.378906 127.296875 330.878906 130.601562 332.144531 C 132.136719 332.746094 133.734375 333.046875 135.382812 333.046875 C 140.808594 333.046875 145.777344 329.644531 147.738281 324.578125 L 250.15625 59.984375 C 252.796875 53.164062 249.398438 45.476562 242.578125 42.847656 C 241.058594 42.25 239.445312 41.949219 237.800781 41.949219 Z M 237.800781 49.859375 C 238.449219 49.859375 239.097656 49.984375 239.730469 50.222656 C 242.480469 51.28125 243.84375 54.367188 242.78125 57.121094 L 140.351562 321.714844 C 139.542969 323.835938 137.519531 325.132812 135.382812 325.132812 C 134.734375 325.132812 134.085938 325.023438 133.453125 324.769531 C 130.699219 323.710938 129.335938 320.609375 130.414062 317.871094 L 232.832031 53.277344 C 233.652344 51.15625 235.664062 49.859375 237.800781 49.859375 " fill-opacity="1" fill-rule="nonzero"/></g></svg>